PathFileType	4	(X/Y/Z)	Patient4_TMGait_0pt2_02_right_03.trc.trc
DataRate	CameraRate	NumFrames	NumMarkers	Units	OrigDataRate	OrigDataStartFrame	OrigNumFrames
44.444444444444	44.444444444444	5	33	mm	44.444444444444	53	       141
Frame#	Time	R.Midfoot.Superior			Sacral			L.Shoulder			Chest			R.Shoulder			Neck			R.ASIS			L.ASIS			R.Thigh.Superior			R.Thigh.Lateral			R.Thigh.Inferior			R.Patella			L.Thigh.Superior			L.Thigh.Lateral			L.Thigh.Inferior			L.Patella			L.Shank.Superior			L.Shank.Lateral			L.Shank.Inferior			R.Shank.Superior			R.Shank.Lateral			R.Shank.Inferior			R.Heel			R.Midfoot.Lateral			R.Toe			L.Heel			L.Midfoot.Lateral			L.Midfoot.Superior			L.Toe			L.Elbow			L.Wrist			R.Elbow			R.Wrist			
		X1	Y1	Z1	X2	Y2	Z2	X3	Y3	Z3	X4	Y4	Z4	X5	Y5	Z5	X6	Y6	Z6	X7	Y7	Z7	X8	Y8	Z8	X9	Y9	Z9	X10	Y10	Z10	X11	Y11	Z11	X12	Y12	Z12	X13	Y13	Z13	X14	Y14	Z14	X15	Y15	Z15	X16	Y16	Z16	X17	Y17	Z17	X18	Y18	Z18	X19	Y19	Z19	X20	Y20	Z20	X21	Y21	Z21	X22	Y22	Z22	X23	Y23	Z23	X24	Y24	Z24	X25	Y25	Z25	X26	Y26	Z26	X27	Y27	Z27	X28	Y28	Z28	X29	Y29	Z29	X30	Y30	Z30	X31	Y31	Z31	X32	Y32	Z32	X33	Y33	Z33	

53	6.580000000000	929.577609188238	96.372245792034	578.828877021350	749.839402021892	996.455475571933	544.738084418513	954.212101051503	1406.273542508595	340.771515326425	1048.569340280714	1344.522067267867	508.775898409661	963.010946648516	1429.652780208817	676.148532065945	930.174244053053	1478.045543890686	493.509387761337	980.369494011828	929.139410080958	660.592745250119	962.838252957808	940.956267225011	388.143441660746	1029.052945773872	731.562420185801	614.197836338295	954.587190138179	613.348790206299	667.968642387953	1030.516760949935	569.182359325949	581.219782201591	1033.399181319501	472.855551558537	582.032580728504	1029.429177345078	749.051336378652	407.795387435571	968.272961526322	629.373920134806	324.503614567358	1066.623874029123	556.158898255726	382.374085496938	1070.012573358570	467.759992610280	369.563749638471	999.369650514697	408.485819710051	357.557480775582	856.376280094417	374.701626204719	306.268275065922	840.473659658649	241.676731227953	350.814684323705	985.778436922169	387.128005317360	584.601264462593	900.136462874344	293.749082743691	646.496865428595	917.944539382962	198.033059613347	574.862413444312	755.794943438672	47.624457332881	546.667733404657	840.730795956259	38.857397447785	618.428451245559	1048.449838068295	39.370186755679	603.901140397954	646.939159360287	173.999905862450	384.202511149400	704.636534691627	135.531826598186	300.239893718857	810.172947693199	146.116322009246	320.384918638145	891.417147765779	42.100615419279	283.142448814318	906.587120125671	1048.545850385757	246.387939736719	939.926102739529	791.534953150167	249.972597778179	942.999806654311	1087.624530529426	819.655644678300	1125.570066177149	904.108934987751	824.257820922909	
54	6.602500000000	925.248071045334	96.412424282851	579.112132925388	748.040150786307	995.271073146840	548.929933529402	949.161455175116	1405.861903657159	343.433874052940	1046.451288789581	1343.327905153381	509.564292293293	964.151112968874	1428.102603577758	678.777382329916	928.156679312834	1477.201289851739	496.727543889730	979.734114722055	928.058054979450	662.181927539121	959.442339547586	940.357844450583	389.834459809253	1028.265043691808	730.429757658586	615.867818956670	953.908589037519	612.220257770188	669.415920500530	1029.656464589453	568.269638525638	582.261448964740	1032.397190215780	471.728401758605	582.756010609624	1031.557398976386	752.840105556321	411.255478059559	975.422731105105	631.214168412921	327.388258507417	1075.804702062867	560.909978886877	385.962244196028	1081.352614682448	471.750198538724	372.577739288382	1010.348134093573	411.209724179953	360.533888789434	866.496223113031	378.630990603830	309.889815323237	849.565748189149	245.620201724158	354.328627534951	984.064837604267	386.083231790050	585.187430053999	897.849329257097	293.154609589156	647.139716939172	914.575204390863	197.563092438217	575.196740688198	751.321208400406	47.870223118408	546.891709488558	836.251151838342	38.906703565448	618.603436882447	1043.957336110913	39.273691602934	603.952890103432	655.340617902092	179.426742433455	388.499506522706	712.295399783928	141.388898609115	303.756460577748	818.262514914590	150.675023709980	323.611128510716	898.438493668552	44.720545411542	284.465034467461	885.447086877333	1050.257451478901	251.488488441361	901.109542896574	791.285003771436	258.157345601148	962.533333555777	1086.440743827387	823.927485512108	1160.731096890152	920.312233671975	823.781411711493	
55	6.625000000000	920.911642126903	96.485015158602	579.409458344755	746.409357564335	994.645733687463	552.738592753996	944.003713049827	1406.176053280103	345.874206237964	1044.265447672809	1342.761229143715	509.979146123655	965.326283099905	1427.153172352719	680.985532225073	926.044084931318	1476.912521809424	499.653988951937	979.172629062092	927.448987968755	663.332274705379	956.176455570831	940.380956718249	391.117041318902	1027.091206104791	729.541100345499	617.131318668824	952.628780342911	611.508391002559	670.595029357529	1027.991283919084	567.577150000529	583.011138291745	1030.454099450367	470.945103029511	583.256541514515	1032.848883661362	756.716174802319	414.314051129183	981.128099617907	633.453698456713	329.972857940303	1083.058092316723	565.750226055801	389.295523440198	1090.701405546308	476.155786405678	375.473354495336	1019.951677034360	414.261205057283	363.183055312385	875.854104611694	381.352586982211	312.917262915692	859.370949990862	248.210872899381	357.129260766028	981.597766988136	385.392930680119	585.609918799865	895.035855202075	292.798200960738	647.637862834797	910.909810507333	197.307318019738	575.475678699105	746.839064889460	48.187855488895	547.123683565960	831.766862452284	39.003652596613	618.786670100970	1039.452853078190	39.196653444106	604.000077386219	665.432718043164	181.214811764032	391.774166952090	722.139997594882	144.325408367484	306.371639199339	828.233602429514	153.588992789816	326.080182667126	908.571792517631	47.189947666546	285.252481758101	864.793403959351	1053.647695225013	255.876148290050	864.603794571954	794.059061190064	266.513550274291	982.286026948790	1086.912993343457	827.349721869675	1194.374615005102	939.510047042919	821.959130799322	
56	6.647500000000	916.564096198758	96.580814722236	579.708807600531	744.980851123863	994.620326311465	556.246988964667	938.774135576018	1407.186525558345	348.089544139269	1042.059377668054	1342.834361098266	510.018807596605	966.591709647609	1426.857227523838	682.745832766789	923.870898278182	1477.182174643264	502.262102038023	978.730337439793	927.297469894152	664.054031579204	952.991135622364	941.064014123555	392.034225041073	1025.544958077790	728.907325870633	617.961151951696	950.785885081079	611.216492279566	671.520426998880	1025.536800054170	567.112065242478	583.472304358334	1027.582735137281	470.507843507050	583.551536206707	1033.232562187339	760.582074325980	416.883191697158	985.192805060761	636.002988978323	332.190302716425	1088.164472301938	570.499150819112	392.270343111857	1097.804901759718	480.822858648049	378.123536824529	1027.972764724781	417.530660338445	365.373278735456	884.332947255698	382.672148226848	315.180193839913	869.906770252380	249.264249636825	359.003476357195	978.381375557981	385.061308953137	585.891944192017	891.698334721327	292.679375347890	648.005922898800	906.954958895255	197.263495636593	575.707531378052	742.347462034260	48.572195266913	547.359278954555	827.279064759865	39.144025533814	618.974380509564	1034.938444353085	39.131282055528	604.043990843818	677.353819316439	179.115027925235	393.774607522159	734.297658416850	144.073872041634	307.848926663137	840.199191873022	154.617940517508	327.553394084849	921.935620498822	49.289739025452	285.311851529000	844.865810932646	1058.545273758297	259.657306364400	830.798324200259	799.359962758149	274.980814850083	1002.030017241571	1089.105957645955	829.908310370405	1226.039560271241	961.465965675501	818.848649052232	
57	6.670000000000	912.198133039846	96.687109092162	579.996543681798	743.756111759939	995.181962327769	559.526559317531	933.511840980546	1408.807004497170	350.082747231940	1039.875976287480	1343.493338669518	509.689861931654	968.000374718926	1427.198591624611	684.045534596049	921.682515865855	1477.961289083159	504.539896249525	978.424151511246	927.542986177131	664.356527689237	949.818958479587	942.381199775670	392.617441844981	1023.642228536984	728.509289491918	618.347598059988	948.430948116447	611.312148729586	672.211350173184	1022.340615072114	566.856434110833	583.660983704086	1023.837450920984	470.391155557978	583.665551390309	1032.678401877870	764.333538864145	418.880594764779	987.513225232994	638.746515510348	333.963873334639	1091.039660166442	574.987224594659	394.765106574217	1102.557128799545	485.595923234671	380.382772259752	1034.316811081956	420.905561910397	366.985818367927	891.914060466418	382.498541868764	316.550770383262	881.180915915069	248.747136613998	359.820913124317	974.457855643197	385.063056604198	586.061459935141	887.860689863134	292.774433854580	648.263816225259	902.726910024132	197.409356625340	575.901769275343	737.844093672802	49.001245289329	547.592933549859	822.787125403877	39.314820177920	619.162354260762	1030.414895201649	39.072663669903	604.085133995084	691.197982338503	173.203055984876	394.374177630779	748.815258586153	140.649107631590	308.071552599334	854.190724848884	153.719694889019	327.900379556283	938.474545944796	50.893786017059	284.550181325202	825.866548213329	1064.685673573780	262.981161666408	799.933310741459	806.605026084253	283.491451683439	1021.543383964994	1092.976304106242	831.615093240263	1255.354593283216	985.799465904476	814.554462808437	
